<svg xmlns="http://www.w3.org/2000/svg" viewBox="0 0 1024 1024" fill="none">
  <path
    d="M 968 512 L 966.9 654.8 L 963.6 713.4 L 958.1 757.7 L 950.3 794.1 L 940.2 825.1 L 927.8 851.9 L 912.9 875.2 L 895.4 895.4 L 875.2 912.9 L 851.9 927.8 L 825.1 940.2 L 794.1 950.3 L 757.7 958.1 L 713.4 963.6 L 654.8 966.9 L 512 968 L 369.2 966.9 L 310.6 963.6 L 266.3 958.1 L 229.9 950.3 L 198.9 940.2 L 172.1 927.8 L 148.8 912.9 L 128.6 895.4 L 111.1 875.2 L 96.2 851.9 L 83.8 825.1 L 73.7 794.1 L 65.9 757.7 L 60.4 713.4 L 57.1 654.8 L 56 512 L 57.1 369.2 L 60.4 310.6 L 65.9 266.3 L 73.7 229.9 L 83.8 198.9 L 96.2 172.1 L 111.1 148.8 L 128.6 128.6 L 148.8 111.1 L 172.1 96.2 L 198.9 83.8 L 229.9 73.7 L 266.3 65.9 L 310.6 60.4 L 369.2 57.1 L 512 56 L 654.8 57.1 L 713.4 60.4 L 757.7 65.9 L 794.1 73.7 L 825.1 83.8 L 851.9 96.2 L 875.2 111.1 L 895.4 128.6 L 912.9 148.8 L 927.8 172.1 L 940.2 198.9 L 950.3 229.9 L 958.1 266.3 L 963.6 310.6 L 966.9 369.2 Z"
    fill="#0A0A0C"/>
  <path d="M 968 512 L 966.9 654.8 L 963.6 713.4 L 958.1 757.7 L 950.3 794.1 L 940.2 825.1 L 927.8 851.9 L 912.9 875.2 L 895.4 895.4 L 875.2 912.9 L 851.9 927.8 L 825.1 940.2 L 794.1 950.3 L 757.7 958.1 L 713.4 963.6 L 654.8 966.9 L 512 968 L 369.2 966.9 L 310.6 963.6 L 266.3 958.1 L 229.9 950.3 L 198.9 940.2 L 172.1 927.8 L 148.8 912.9 L 128.6 895.4 L 111.1 875.2 L 96.2 851.9 L 83.8 825.1 L 73.7 794.1 L 65.9 757.7 L 60.4 713.4 L 57.1 654.8 L 56 512 L 57.1 369.2 L 60.4 310.6 L 65.9 266.3 L 73.7 229.9 L 83.8 198.9 L 96.2 172.1 L 111.1 148.8 L 128.6 128.6 L 148.8 111.1 L 172.1 96.2 L 198.9 83.8 L 229.9 73.7 L 266.3 65.9 L 310.6 60.4 L 369.2 57.1 L 512 56 L 654.8 57.1 L 713.4 60.4 L 757.7 65.9 L 794.1 73.7 L 825.1 83.8 L 851.9 96.2 L 875.2 111.1 L 895.4 128.6 L 912.9 148.8 L 927.8 172.1 L 940.2 198.9 L 950.3 229.9 L 958.1 266.3 L 963.6 310.6 L 966.9 369.2 Z"
    stroke="#FFFFFF" stroke-opacity="0.08" stroke-width="8"/>
  <rect x="250" y="250" width="224" height="224" rx="58" fill="#FF453A"/>
  <rect x="550" y="250" width="224" height="224" rx="58" fill="#F5F5F0"/>
  <rect x="250" y="550" width="224" height="224" rx="58" fill="#F5F5F0"/>
  <rect x="550" y="550" width="224" height="224" rx="58" fill="#26262F" stroke="#F5F5F0" stroke-width="26"/>
</svg>
